<svg width="24" height="24" viewBox="0 0 24 24" fill="none" xmlns="http://www.w3.org/2000/svg">
<path fill-rule="evenodd" clip-rule="evenodd" d="M4.69865 7L9.09725 2.78467C10.161 1.7653 11.839 1.7653 12.9027 2.78467L17.3013 7H19.847C20.4555 7 20.923 7.53899 20.8369 8.14142L19.368 18.4243C19.1568 19.9022 17.8911 21 16.3981 21H5.6019C4.10895 21 2.84318 19.9022 2.63205 18.4243L1.16307 8.14142C1.07701 7.53899 1.54447 7 2.15302 7H4.69865ZM10.1351 3.86766C10.6186 3.4043 11.3814 3.4043 11.8649 3.86766L15.1334 7H6.86658L10.1351 3.86766ZM2.72952 8.5L4.11697 18.2121C4.22254 18.9511 4.85542 19.5 5.6019 19.5H16.3981C17.1446 19.5 17.7775 18.9511 17.883 18.2121L19.2705 8.5H2.72952Z" fill="black"/>
<path fill-rule="evenodd" clip-rule="evenodd" d="M8 11.25C8.41421 11.25 8.75 11.5858 8.75 12V16C8.75 16.4142 8.41421 16.75 8 16.75C7.58579 16.75 7.25 16.4142 7.25 16V12C7.25 11.5858 7.58579 11.25 8 11.25Z" fill="black"/>
<path fill-rule="evenodd" clip-rule="evenodd" d="M12 11.25C12.4142 11.25 12.75 11.5858 12.75 12V16C12.75 16.4142 12.4142 16.75 12 16.75C11.5858 16.75 11.25 16.4142 11.25 16V12C11.25 11.5858 11.5858 11.25 12 11.25Z" fill="black"/>
<path fill-rule="evenodd" clip-rule="evenodd" d="M16 11.25C16.4142 11.25 16.75 11.5858 16.75 12V16C16.75 16.4142 16.4142 16.75 16 16.75C15.5858 16.75 15.25 16.4142 15.25 16V12C15.25 11.5858 15.5858 11.25 16 11.25Z" fill="black"/>
</svg>
