<svg width="293" height="108" viewBox="0 0 293 108" fill="none" xmlns="http://www.w3.org/2000/svg">
<g filter="url(#filter0_d_1_4)">
<g filter="url(#filter1_di_1_4)">
<ellipse cx="61.5" cy="50" rx="57.5" ry="50" fill="white"/>
<path d="M118.5 50C118.5 77.2748 93.0481 99.5 61.5 99.5C29.9519 99.5 4.5 77.2748 4.5 50C4.5 22.7252 29.9519 0.5 61.5 0.5C93.0481 0.5 118.5 22.7252 118.5 50Z" stroke="black" stroke-opacity="0.5"/>
</g>
<g filter="url(#filter2_d_1_4)">
<path d="M83.7614 58V43.4545H88.6761C89.8172 43.4545 90.75 43.6605 91.4744 44.0724C92.2036 44.4796 92.7434 45.0312 93.0938 45.7273C93.4441 46.4233 93.6193 47.1998 93.6193 48.0568C93.6193 48.9138 93.4441 49.6927 93.0938 50.3935C92.7481 51.0942 92.2131 51.6529 91.4886 52.0696C90.7642 52.4815 89.8362 52.6875 88.7045 52.6875H85.1818V51.125H88.6477C89.429 51.125 90.0563 50.9901 90.5298 50.7202C91.0033 50.4503 91.3466 50.0857 91.5597 49.6264C91.7775 49.1624 91.8864 48.6392 91.8864 48.0568C91.8864 47.4744 91.7775 46.9536 91.5597 46.4943C91.3466 46.035 91.0009 45.6752 90.5227 45.4148C90.0445 45.1496 89.41 45.017 88.6193 45.017H85.5227V58H83.7614ZM97.9055 43.4545V58H96.2294V43.4545H97.9055ZM105.549 58.2273C104.498 58.2273 103.592 57.9953 102.829 57.5312C102.072 57.0625 101.487 56.4091 101.075 55.571C100.668 54.7282 100.464 53.7481 100.464 52.6307C100.464 51.5133 100.668 50.5284 101.075 49.6761C101.487 48.8191 102.06 48.1515 102.794 47.6733C103.532 47.1903 104.394 46.9489 105.379 46.9489C105.947 46.9489 106.508 47.0436 107.062 47.233C107.616 47.4223 108.12 47.7301 108.575 48.1562C109.029 48.5777 109.392 49.1364 109.662 49.8324C109.931 50.5284 110.066 51.3854 110.066 52.4034V53.1136H101.657V51.6648H108.362C108.362 51.0492 108.239 50.5 107.993 50.017C107.751 49.5341 107.405 49.1529 106.956 48.8736C106.511 48.5942 105.985 48.4545 105.379 48.4545C104.711 48.4545 104.134 48.6203 103.646 48.9517C103.163 49.2784 102.791 49.7045 102.531 50.2301C102.27 50.7557 102.14 51.3191 102.14 51.9205V52.8864C102.14 53.7102 102.282 54.4086 102.566 54.9815C102.855 55.5497 103.255 55.983 103.767 56.2812C104.278 56.5748 104.872 56.7216 105.549 56.7216C105.99 56.7216 106.387 56.66 106.743 56.5369C107.102 56.4091 107.413 56.2197 107.673 55.9688C107.933 55.7131 108.135 55.3958 108.277 55.017L109.896 55.4716C109.725 56.0208 109.439 56.5038 109.037 56.9205C108.634 57.3324 108.137 57.6544 107.545 57.8864C106.953 58.1136 106.288 58.2273 105.549 58.2273ZM117.36 47.0909V48.5114H111.707V47.0909H117.36ZM113.355 44.4773H115.031V54.875C115.031 55.3485 115.1 55.7036 115.237 55.9403C115.379 56.1723 115.559 56.3286 115.777 56.4091C115.999 56.4848 116.234 56.5227 116.48 56.5227C116.664 56.5227 116.816 56.5133 116.934 56.4943C117.053 56.4706 117.147 56.4517 117.218 56.4375L117.559 57.9432C117.446 57.9858 117.287 58.0284 117.083 58.071C116.88 58.1184 116.622 58.142 116.309 58.142C115.836 58.142 115.372 58.0402 114.917 57.8366C114.467 57.633 114.093 57.3229 113.795 56.9062C113.502 56.4896 113.355 55.964 113.355 55.3295V44.4773ZM121.558 51.4375V58H119.882V47.0909H121.501V48.7955H121.643C121.899 48.2415 122.287 47.7964 122.808 47.4602C123.329 47.1193 124.001 46.9489 124.825 46.9489C125.564 46.9489 126.21 47.1004 126.764 47.4034C127.318 47.7017 127.749 48.1562 128.056 48.767C128.364 49.3731 128.518 50.1402 128.518 51.0682V58H126.842V51.1818C126.842 50.3248 126.619 49.6572 126.174 49.179C125.729 48.696 125.118 48.4545 124.342 48.4545C123.807 48.4545 123.329 48.5705 122.907 48.8026C122.491 49.0346 122.162 49.3731 121.92 49.8182C121.679 50.2633 121.558 50.803 121.558 51.4375ZM131.581 58V47.0909H133.257V58H131.581ZM132.433 45.2727C132.107 45.2727 131.825 45.1615 131.588 44.9389C131.356 44.7164 131.24 44.4489 131.24 44.1364C131.24 43.8239 131.356 43.5563 131.588 43.3338C131.825 43.1113 132.107 43 132.433 43C132.76 43 133.039 43.1113 133.271 43.3338C133.508 43.5563 133.626 43.8239 133.626 44.1364C133.626 44.4489 133.508 44.7164 133.271 44.9389C133.039 45.1615 132.76 45.2727 132.433 45.2727ZM137.89 54.0227L137.861 51.9489H138.202L142.975 47.0909H145.049L139.963 52.233H139.821L137.89 54.0227ZM136.327 58V43.4545H138.003V58H136.327ZM143.259 58L138.998 52.6023L140.191 51.4375L145.39 58H143.259ZM157.376 48C157.22 47.5218 157.014 47.0933 156.759 46.7145C156.508 46.331 156.207 46.0043 155.857 45.7344C155.511 45.4645 155.118 45.2585 154.678 45.1165C154.237 44.9744 153.754 44.9034 153.229 44.9034C152.367 44.9034 151.583 45.1259 150.878 45.571C150.172 46.0161 149.611 46.6719 149.195 47.5384C148.778 48.4048 148.57 49.4678 148.57 50.7273C148.57 51.9867 148.78 53.0497 149.202 53.9162C149.623 54.7827 150.194 55.4384 150.913 55.8835C151.633 56.3286 152.443 56.5511 153.342 56.5511C154.176 56.5511 154.91 56.3736 155.544 56.0185C156.183 55.6586 156.68 55.152 157.036 54.4986C157.395 53.8404 157.575 53.0663 157.575 52.1761L158.115 52.2898H153.74V50.7273H159.28V52.2898C159.28 53.4877 159.024 54.5294 158.513 55.4148C158.006 56.3002 157.305 56.9867 156.411 57.4744C155.52 57.9574 154.498 58.1989 153.342 58.1989C152.054 58.1989 150.923 57.8958 149.947 57.2898C148.977 56.6837 148.219 55.822 147.675 54.7045C147.135 53.5871 146.865 52.2614 146.865 50.7273C146.865 49.5767 147.019 48.5421 147.327 47.6236C147.639 46.7003 148.08 45.9143 148.648 45.2656C149.216 44.617 149.888 44.1198 150.665 43.7741C151.441 43.4285 152.296 43.2557 153.229 43.2557C153.996 43.2557 154.711 43.3717 155.374 43.6037C156.041 43.831 156.635 44.1553 157.156 44.5767C157.682 44.9934 158.12 45.4929 158.47 46.0753C158.821 46.6529 159.062 47.2945 159.195 48H157.376ZM165.279 58.2557C164.588 58.2557 163.961 58.1255 163.397 57.8651C162.834 57.5999 162.386 57.2188 162.055 56.7216C161.724 56.2197 161.558 55.6136 161.558 54.9034C161.558 54.2784 161.681 53.7718 161.927 53.3835C162.173 52.9905 162.502 52.6828 162.914 52.4602C163.326 52.2377 163.781 52.072 164.278 51.9631C164.78 51.8494 165.284 51.7595 165.791 51.6932C166.454 51.608 166.991 51.544 167.403 51.5014C167.82 51.4541 168.123 51.3759 168.312 51.267C168.506 51.1581 168.603 50.9687 168.603 50.6989V50.642C168.603 49.9413 168.412 49.3968 168.028 49.0085C167.649 48.6203 167.074 48.4261 166.302 48.4261C165.502 48.4261 164.875 48.6013 164.42 48.9517C163.966 49.3021 163.646 49.6761 163.461 50.0739L161.87 49.5057C162.154 48.8428 162.533 48.3267 163.007 47.9574C163.485 47.5833 164.006 47.3229 164.569 47.1761C165.137 47.0246 165.696 46.9489 166.245 46.9489C166.596 46.9489 166.998 46.9915 167.453 47.0767C167.912 47.1572 168.355 47.3253 168.781 47.581C169.212 47.8366 169.569 48.2225 169.853 48.7386C170.137 49.2547 170.279 49.946 170.279 50.8125V58H168.603V56.5227H168.518C168.404 56.7595 168.215 57.0128 167.95 57.2827C167.685 57.5526 167.332 57.7822 166.892 57.9716C166.451 58.161 165.914 58.2557 165.279 58.2557ZM165.535 56.75C166.198 56.75 166.757 56.6198 167.211 56.3594C167.671 56.099 168.016 55.7628 168.248 55.3509C168.485 54.9389 168.603 54.5057 168.603 54.0511V52.517C168.532 52.6023 168.376 52.6804 168.135 52.7514C167.898 52.8177 167.623 52.8769 167.311 52.929C167.003 52.9763 166.702 53.0189 166.409 53.0568C166.12 53.09 165.886 53.1184 165.706 53.142C165.27 53.1989 164.863 53.2912 164.484 53.419C164.11 53.5421 163.807 53.7292 163.575 53.9801C163.348 54.2263 163.234 54.5625 163.234 54.9886C163.234 55.571 163.449 56.0114 163.88 56.3097C164.316 56.6032 164.868 56.75 165.535 56.75ZM173.339 58V47.0909H174.958V48.7955H175.1C175.327 48.2131 175.694 47.7609 176.201 47.4389C176.708 47.1122 177.316 46.9489 178.026 46.9489C178.746 46.9489 179.345 47.1122 179.823 47.4389C180.306 47.7609 180.683 48.2131 180.952 48.7955H181.066C181.345 48.232 181.764 47.7846 182.323 47.4531C182.882 47.117 183.552 46.9489 184.333 46.9489C185.308 46.9489 186.106 47.2543 186.727 47.8651C187.347 48.4711 187.657 49.4157 187.657 50.6989V58H185.981V50.6989C185.981 49.8939 185.761 49.3187 185.32 48.973C184.88 48.6274 184.362 48.4545 183.765 48.4545C182.998 48.4545 182.404 48.6866 181.982 49.1506C181.561 49.6098 181.35 50.1922 181.35 50.8977V58H179.646V50.5284C179.646 49.9081 179.444 49.4086 179.042 49.0298C178.639 48.6463 178.121 48.4545 177.487 48.4545C177.051 48.4545 176.644 48.5705 176.265 48.8026C175.891 49.0346 175.588 49.3565 175.356 49.7685C175.129 50.1757 175.015 50.6468 175.015 51.1818V58H173.339ZM195.295 58.2273C194.244 58.2273 193.338 57.9953 192.575 57.5312C191.818 57.0625 191.233 56.4091 190.821 55.571C190.414 54.7282 190.21 53.7481 190.21 52.6307C190.21 51.5133 190.414 50.5284 190.821 49.6761C191.233 48.8191 191.806 48.1515 192.54 47.6733C193.278 47.1903 194.14 46.9489 195.125 46.9489C195.693 46.9489 196.254 47.0436 196.808 47.233C197.362 47.4223 197.866 47.7301 198.321 48.1562C198.776 48.5777 199.138 49.1364 199.408 49.8324C199.678 50.5284 199.812 51.3854 199.812 52.4034V53.1136H191.403V51.6648H198.108C198.108 51.0492 197.985 50.5 197.739 50.017C197.497 49.5341 197.152 49.1529 196.702 48.8736C196.257 48.5942 195.731 48.4545 195.125 48.4545C194.457 48.4545 193.88 48.6203 193.392 48.9517C192.909 49.2784 192.537 49.7045 192.277 50.2301C192.017 50.7557 191.886 51.3191 191.886 51.9205V52.8864C191.886 53.7102 192.028 54.4086 192.312 54.9815C192.601 55.5497 193.001 55.983 193.513 56.2812C194.024 56.5748 194.618 56.7216 195.295 56.7216C195.736 56.7216 196.134 56.66 196.489 56.5369C196.848 56.4091 197.159 56.2197 197.419 55.9688C197.679 55.7131 197.881 55.3958 198.023 55.017L199.642 55.4716C199.472 56.0208 199.185 56.5038 198.783 56.9205C198.38 57.3324 197.883 57.6544 197.291 57.8864C196.699 58.1136 196.034 58.2273 195.295 58.2273ZM210.089 49.5341L208.584 49.9602C208.489 49.7093 208.349 49.4654 208.165 49.2287C207.985 48.9872 207.739 48.7884 207.426 48.6321C207.114 48.4759 206.714 48.3977 206.226 48.3977C205.558 48.3977 205.002 48.5516 204.557 48.8594C204.116 49.1624 203.896 49.5483 203.896 50.017C203.896 50.4337 204.048 50.7628 204.351 51.0043C204.654 51.2457 205.127 51.447 205.771 51.608L207.391 52.0057C208.366 52.2424 209.093 52.6046 209.571 53.0923C210.049 53.5753 210.288 54.1979 210.288 54.9602C210.288 55.5852 210.108 56.1439 209.749 56.6364C209.393 57.1288 208.896 57.517 208.257 57.8011C207.618 58.0852 206.875 58.2273 206.027 58.2273C204.914 58.2273 203.993 57.9858 203.264 57.5028C202.535 57.0199 202.073 56.3144 201.879 55.3864L203.47 54.9886C203.622 55.5758 203.908 56.0161 204.33 56.3097C204.756 56.6032 205.312 56.75 205.999 56.75C206.78 56.75 207.4 56.5843 207.859 56.2528C208.323 55.9167 208.555 55.5142 208.555 55.0455C208.555 54.6667 208.423 54.3494 208.158 54.0938C207.893 53.8333 207.485 53.6392 206.936 53.5114L205.118 53.0852C204.119 52.8485 203.385 52.4815 202.916 51.9844C202.452 51.4825 202.22 50.8551 202.22 50.1023C202.22 49.4867 202.393 48.9422 202.739 48.4688C203.089 47.9953 203.565 47.6236 204.166 47.3537C204.772 47.0838 205.459 46.9489 206.226 46.9489C207.305 46.9489 208.153 47.1856 208.768 47.6591C209.389 48.1326 209.829 48.7576 210.089 49.5341Z" fill="black"/>
</g>
</g>
<defs>
<filter id="filter0_d_1_4" x="0" y="0" width="214.288" height="108" filterUnits="userSpaceOnUse" color-interpolation-filters="sRGB">
<feFlood flood-opacity="0" result="BackgroundImageFix"/>
<feColorMatrix in="SourceAlpha" type="matrix" values="0 0 0 0 0 0 0 0 0 0 0 0 0 0 0 0 0 0 127 0" result="hardAlpha"/>
<feOffset dy="4"/>
<feGaussianBlur stdDeviation="2"/>
<feComposite in2="hardAlpha" operator="out"/>
<feColorMatrix type="matrix" values="0 0 0 0 0 0 0 0 0 0 0 0 0 0 0 0 0 0 0.25 0"/>
<feBlend mode="normal" in2="BackgroundImageFix" result="effect1_dropShadow_1_4"/>
<feBlend mode="normal" in="SourceGraphic" in2="effect1_dropShadow_1_4" result="shape"/>
</filter>
<filter id="filter1_di_1_4" x="0" y="0" width="123" height="108" filterUnits="userSpaceOnUse" color-interpolation-filters="sRGB">
<feFlood flood-opacity="0" result="BackgroundImageFix"/>
<feColorMatrix in="SourceAlpha" type="matrix" values="0 0 0 0 0 0 0 0 0 0 0 0 0 0 0 0 0 0 127 0" result="hardAlpha"/>
<feOffset dy="4"/>
<feGaussianBlur stdDeviation="2"/>
<feComposite in2="hardAlpha" operator="out"/>
<feColorMatrix type="matrix" values="0 0 0 0 0 0 0 0 0 0 0 0 0 0 0 0 0 0 0.25 0"/>
<feBlend mode="normal" in2="BackgroundImageFix" result="effect1_dropShadow_1_4"/>
<feBlend mode="normal" in="SourceGraphic" in2="effect1_dropShadow_1_4" result="shape"/>
<feColorMatrix in="SourceAlpha" type="matrix" values="0 0 0 0 0 0 0 0 0 0 0 0 0 0 0 0 0 0 127 0" result="hardAlpha"/>
<feOffset dx="25" dy="9"/>
<feGaussianBlur stdDeviation="2"/>
<feComposite in2="hardAlpha" operator="arithmetic" k2="-1" k3="1"/>
<feColorMatrix type="matrix" values="0 0 0 0 0 0 0 0 0 0 0 0 0 0 0 0 0 0 0.25 0"/>
<feBlend mode="normal" in2="shape" result="effect2_innerShadow_1_4"/>
</filter>
<filter id="filter2_d_1_4" x="79.7614" y="43" width="134.527" height="23.2557" filterUnits="userSpaceOnUse" color-interpolation-filters="sRGB">
<feFlood flood-opacity="0" result="BackgroundImageFix"/>
<feColorMatrix in="SourceAlpha" type="matrix" values="0 0 0 0 0 0 0 0 0 0 0 0 0 0 0 0 0 0 127 0" result="hardAlpha"/>
<feOffset dy="4"/>
<feGaussianBlur stdDeviation="2"/>
<feComposite in2="hardAlpha" operator="out"/>
<feColorMatrix type="matrix" values="0 0 0 0 0 0 0 0 0 0 0 0 0 0 0 0 0 0 0.25 0"/>
<feBlend mode="normal" in2="BackgroundImageFix" result="effect1_dropShadow_1_4"/>
<feBlend mode="normal" in="SourceGraphic" in2="effect1_dropShadow_1_4" result="shape"/>
</filter>
</defs>
</svg>
