<svg width="176" height="85" viewBox="0 0 176 85" fill="none" xmlns="http://www.w3.org/2000/svg">
<g filter="url(#filter0_bi_3_19)">
<path d="M76 48.5C76 68.6584 58.9868 85 38 85C17.0132 85 0 68.6584 0 48.5C0 28.3416 17.0132 12 38 12C58.9868 12 76 28.3416 76 48.5Z" fill="white"/>
<path d="M75.5 48.5C75.5 68.3635 58.7298 84.5 38 84.5C17.2702 84.5 0.5 68.3635 0.5 48.5C0.5 28.6365 17.2702 12.5 38 12.5C58.7298 12.5 75.5 28.6365 75.5 48.5Z" stroke="black" stroke-opacity="0.2"/>
</g>
<g filter="url(#filter1_bd_3_19)">
<path d="M47.4091 56V44.3636H51.3409C52.2538 44.3636 53 44.5284 53.5795 44.858C54.1629 45.1837 54.5947 45.625 54.875 46.1818C55.1553 46.7386 55.2955 47.3598 55.2955 48.0455C55.2955 48.7311 55.1553 49.3542 54.875 49.9148C54.5985 50.4754 54.1705 50.9223 53.5909 51.2557C53.0114 51.5852 52.2689 51.75 51.3636 51.75H48.5455V50.5H51.3182C51.9432 50.5 52.4451 50.392 52.8239 50.1761C53.2027 49.9602 53.4773 49.6686 53.6477 49.3011C53.822 48.9299 53.9091 48.5114 53.9091 48.0455C53.9091 47.5795 53.822 47.1629 53.6477 46.7955C53.4773 46.428 53.2008 46.1402 52.8182 45.9318C52.4356 45.7197 51.928 45.6136 51.2955 45.6136H48.8182V56H47.4091ZM58.7244 44.3636V56H57.3835V44.3636H58.7244ZM64.8395 56.1818C63.9986 56.1818 63.2732 55.9962 62.6634 55.625C62.0573 55.25 61.5895 54.7273 61.2599 54.0568C60.9342 53.3826 60.7713 52.5985 60.7713 51.7045C60.7713 50.8106 60.9342 50.0227 61.2599 49.3409C61.5895 48.6553 62.0478 48.1212 62.6349 47.7386C63.2259 47.3523 63.9152 47.1591 64.7031 47.1591C65.1577 47.1591 65.6065 47.2348 66.0497 47.3864C66.4929 47.5379 66.8963 47.7841 67.2599 48.125C67.6236 48.4621 67.9134 48.9091 68.1293 49.4659C68.3452 50.0227 68.4531 50.7083 68.4531 51.5227V52.0909H61.7259V50.9318H67.0895C67.0895 50.4394 66.991 50 66.794 49.6136C66.6009 49.2273 66.3243 48.9223 65.9645 48.6989C65.6084 48.4754 65.188 48.3636 64.7031 48.3636C64.169 48.3636 63.7069 48.4962 63.3168 48.7614C62.9304 49.0227 62.633 49.3636 62.4247 49.7841C62.2164 50.2045 62.1122 50.6553 62.1122 51.1364V51.9091C62.1122 52.5682 62.2259 53.1269 62.4531 53.5852C62.6842 54.0398 63.0043 54.3864 63.4134 54.625C63.8224 54.8598 64.2978 54.9773 64.8395 54.9773C65.1918 54.9773 65.5099 54.928 65.794 54.8295C66.0819 54.7273 66.33 54.5758 66.5384 54.375C66.7467 54.1705 66.9077 53.9167 67.0213 53.6136L68.3168 53.9773C68.1804 54.4167 67.9512 54.803 67.6293 55.1364C67.3073 55.4659 66.9096 55.7235 66.4361 55.9091C65.9626 56.0909 65.4304 56.1818 64.8395 56.1818ZM74.2884 47.2727V48.4091H69.7656V47.2727H74.2884ZM71.0838 45.1818H72.4247V53.5C72.4247 53.8788 72.4796 54.1629 72.5895 54.3523C72.7031 54.5379 72.8471 54.6629 73.0213 54.7273C73.1993 54.7879 73.3868 54.8182 73.5838 54.8182C73.7315 54.8182 73.8527 54.8106 73.9474 54.7955C74.0421 54.7765 74.1179 54.7614 74.1747 54.75L74.4474 55.9545C74.3565 55.9886 74.2296 56.0227 74.0668 56.0568C73.9039 56.0947 73.6974 56.1136 73.4474 56.1136C73.0687 56.1136 72.6974 56.0322 72.3338 55.8693C71.974 55.7064 71.6747 55.4583 71.4361 55.125C71.2012 54.7917 71.0838 54.3712 71.0838 53.8636V45.1818ZM77.6463 50.75V56H76.3054V47.2727H77.6009V48.6364H77.7145C77.919 48.1932 78.2296 47.8371 78.6463 47.5682C79.063 47.2955 79.6009 47.1591 80.2599 47.1591C80.8509 47.1591 81.3679 47.2803 81.8111 47.5227C82.2543 47.7614 82.599 48.125 82.8452 48.6136C83.0914 49.0985 83.2145 49.7121 83.2145 50.4545V56H81.8736V50.5455C81.8736 49.8598 81.6955 49.3258 81.3395 48.9432C80.9834 48.5568 80.4948 48.3636 79.8736 48.3636C79.4455 48.3636 79.063 48.4564 78.7259 48.642C78.3925 48.8277 78.1293 49.0985 77.9361 49.4545C77.7429 49.8106 77.6463 50.2424 77.6463 50.75ZM85.6648 56V47.2727H87.0057V56H85.6648ZM86.3466 45.8182C86.0852 45.8182 85.8598 45.7292 85.6705 45.5511C85.4848 45.3731 85.392 45.1591 85.392 44.9091C85.392 44.6591 85.4848 44.4451 85.6705 44.267C85.8598 44.089 86.0852 44 86.3466 44C86.608 44 86.8314 44.089 87.017 44.267C87.2064 44.4451 87.3011 44.6591 87.3011 44.9091C87.3011 45.1591 87.2064 45.3731 87.017 45.5511C86.8314 45.7292 86.608 45.8182 86.3466 45.8182ZM90.7116 52.8182L90.6889 51.1591H90.9616L94.7798 47.2727H96.4389L92.3707 51.3864H92.2571L90.7116 52.8182ZM89.4616 56V44.3636H90.8026V56H89.4616ZM95.0071 56L91.598 51.6818L92.5526 50.75L96.7116 56H95.0071ZM106.301 48C106.176 47.6174 106.011 47.2746 105.807 46.9716C105.606 46.6648 105.366 46.4034 105.085 46.1875C104.809 45.9716 104.494 45.8068 104.142 45.6932C103.79 45.5795 103.403 45.5227 102.983 45.5227C102.294 45.5227 101.667 45.7008 101.102 46.0568C100.538 46.4129 100.089 46.9375 99.7557 47.6307C99.4223 48.3239 99.2557 49.1742 99.2557 50.1818C99.2557 51.1894 99.4242 52.0398 99.7614 52.733C100.098 53.4261 100.555 53.9508 101.131 54.3068C101.706 54.6629 102.354 54.8409 103.074 54.8409C103.741 54.8409 104.328 54.6989 104.835 54.4148C105.347 54.1269 105.744 53.7216 106.028 53.1989C106.316 52.6723 106.46 52.053 106.46 51.3409L106.892 51.4318H103.392V50.1818H107.824V51.4318C107.824 52.3902 107.619 53.2235 107.21 53.9318C106.805 54.6402 106.244 55.1894 105.528 55.5795C104.816 55.9659 103.998 56.1591 103.074 56.1591C102.044 56.1591 101.138 55.9167 100.358 55.4318C99.5814 54.947 98.9754 54.2576 98.5398 53.3636C98.108 52.4697 97.892 51.4091 97.892 50.1818C97.892 49.2614 98.0152 48.4337 98.2614 47.6989C98.5114 46.9602 98.8636 46.3314 99.3182 45.8125C99.7727 45.2936 100.311 44.8958 100.932 44.6193C101.553 44.3428 102.237 44.2045 102.983 44.2045C103.597 44.2045 104.169 44.2973 104.699 44.483C105.233 44.6648 105.708 44.9242 106.125 45.2614C106.545 45.5947 106.896 45.9943 107.176 46.4602C107.456 46.9223 107.65 47.4356 107.756 48H106.301ZM112.624 56.2045C112.071 56.2045 111.569 56.1004 111.118 55.892C110.667 55.6799 110.309 55.375 110.044 54.9773C109.779 54.5758 109.646 54.0909 109.646 53.5227C109.646 53.0227 109.745 52.6174 109.942 52.3068C110.139 51.9924 110.402 51.7462 110.732 51.5682C111.061 51.3902 111.425 51.2576 111.822 51.1705C112.224 51.0795 112.627 51.0076 113.033 50.9545C113.563 50.8864 113.993 50.8352 114.322 50.8011C114.656 50.7633 114.898 50.7008 115.05 50.6136C115.205 50.5265 115.283 50.375 115.283 50.1591V50.1136C115.283 49.553 115.129 49.1174 114.822 48.8068C114.519 48.4962 114.059 48.3409 113.442 48.3409C112.802 48.3409 112.3 48.4811 111.936 48.7614C111.572 49.0417 111.317 49.3409 111.169 49.6591L109.896 49.2045C110.124 48.6742 110.427 48.2614 110.805 47.9659C111.188 47.6667 111.605 47.4583 112.055 47.3409C112.51 47.2197 112.957 47.1591 113.396 47.1591C113.677 47.1591 113.999 47.1932 114.362 47.2614C114.73 47.3258 115.084 47.4602 115.425 47.6648C115.769 47.8693 116.055 48.178 116.283 48.5909C116.51 49.0038 116.624 49.5568 116.624 50.25V56H115.283V54.8182H115.214C115.124 55.0076 114.972 55.2102 114.76 55.4261C114.548 55.642 114.266 55.8258 113.913 55.9773C113.561 56.1288 113.131 56.2045 112.624 56.2045ZM112.828 55C113.358 55 113.805 54.8958 114.169 54.6875C114.536 54.4792 114.813 54.2102 114.999 53.8807C115.188 53.5511 115.283 53.2045 115.283 52.8409V51.6136C115.226 51.6818 115.101 51.7443 114.908 51.8011C114.718 51.8542 114.499 51.9015 114.249 51.9432C114.002 51.9811 113.762 52.0152 113.527 52.0455C113.296 52.072 113.108 52.0947 112.964 52.1136C112.616 52.1591 112.29 52.233 111.987 52.3352C111.688 52.4337 111.446 52.5833 111.26 52.7841C111.078 52.9811 110.987 53.25 110.987 53.5909C110.987 54.0568 111.16 54.4091 111.504 54.6477C111.853 54.8826 112.294 55 112.828 55ZM119.071 56V47.2727H120.366V48.6364H120.48C120.662 48.1705 120.955 47.8087 121.361 47.5511C121.766 47.2898 122.253 47.1591 122.821 47.1591C123.397 47.1591 123.876 47.2898 124.259 47.5511C124.645 47.8087 124.946 48.1705 125.162 48.6364H125.253C125.476 48.1856 125.812 47.8277 126.259 47.5625C126.705 47.2936 127.241 47.1591 127.866 47.1591C128.647 47.1591 129.285 47.4034 129.781 47.892C130.277 48.3769 130.526 49.1326 130.526 50.1591V56H129.185V50.1591C129.185 49.5152 129.009 49.0549 128.656 48.7784C128.304 48.5019 127.889 48.3636 127.412 48.3636C126.798 48.3636 126.323 48.5492 125.986 48.9205C125.649 49.2879 125.48 49.7538 125.48 50.3182V56H124.116V50.0227C124.116 49.5265 123.955 49.1269 123.634 48.8239C123.312 48.517 122.897 48.3636 122.389 48.3636C122.041 48.3636 121.715 48.4564 121.412 48.642C121.113 48.8277 120.87 49.0852 120.685 49.4148C120.503 49.7405 120.412 50.1174 120.412 50.5455V56H119.071ZM136.636 56.1818C135.795 56.1818 135.07 55.9962 134.46 55.625C133.854 55.25 133.386 54.7273 133.057 54.0568C132.731 53.3826 132.568 52.5985 132.568 51.7045C132.568 50.8106 132.731 50.0227 133.057 49.3409C133.386 48.6553 133.845 48.1212 134.432 47.7386C135.023 47.3523 135.712 47.1591 136.5 47.1591C136.955 47.1591 137.403 47.2348 137.847 47.3864C138.29 47.5379 138.693 47.7841 139.057 48.125C139.42 48.4621 139.71 48.9091 139.926 49.4659C140.142 50.0227 140.25 50.7083 140.25 51.5227V52.0909H133.523V50.9318H138.886C138.886 50.4394 138.788 50 138.591 49.6136C138.398 49.2273 138.121 48.9223 137.761 48.6989C137.405 48.4754 136.985 48.3636 136.5 48.3636C135.966 48.3636 135.504 48.4962 135.114 48.7614C134.727 49.0227 134.43 49.3636 134.222 49.7841C134.013 50.2045 133.909 50.6553 133.909 51.1364V51.9091C133.909 52.5682 134.023 53.1269 134.25 53.5852C134.481 54.0398 134.801 54.3864 135.21 54.625C135.619 54.8598 136.095 54.9773 136.636 54.9773C136.989 54.9773 137.307 54.928 137.591 54.8295C137.879 54.7273 138.127 54.5758 138.335 54.375C138.544 54.1705 138.705 53.9167 138.818 53.6136L140.114 53.9773C139.977 54.4167 139.748 54.803 139.426 55.1364C139.104 55.4659 138.706 55.7235 138.233 55.9091C137.759 56.0909 137.227 56.1818 136.636 56.1818ZM148.472 49.2273L147.267 49.5682C147.191 49.3674 147.08 49.1723 146.932 48.983C146.788 48.7898 146.591 48.6307 146.341 48.5057C146.091 48.3807 145.771 48.3182 145.381 48.3182C144.847 48.3182 144.402 48.4413 144.045 48.6875C143.693 48.9299 143.517 49.2386 143.517 49.6136C143.517 49.947 143.638 50.2102 143.881 50.4034C144.123 50.5966 144.502 50.7576 145.017 50.8864L146.312 51.2045C147.093 51.3939 147.674 51.6837 148.057 52.0739C148.439 52.4602 148.631 52.9583 148.631 53.5682C148.631 54.0682 148.487 54.5152 148.199 54.9091C147.915 55.303 147.517 55.6136 147.006 55.8409C146.494 56.0682 145.9 56.1818 145.222 56.1818C144.331 56.1818 143.595 55.9886 143.011 55.6023C142.428 55.2159 142.059 54.6515 141.903 53.9091L143.176 53.5909C143.297 54.0606 143.527 54.4129 143.864 54.6477C144.205 54.8826 144.65 55 145.199 55C145.824 55 146.32 54.8674 146.688 54.6023C147.059 54.3333 147.244 54.0114 147.244 53.6364C147.244 53.3333 147.138 53.0795 146.926 52.875C146.714 52.6667 146.388 52.5114 145.949 52.4091L144.494 52.0682C143.695 51.8788 143.108 51.5852 142.733 51.1875C142.362 50.786 142.176 50.2841 142.176 49.6818C142.176 49.1894 142.314 48.7538 142.591 48.375C142.871 47.9962 143.252 47.6989 143.733 47.483C144.218 47.267 144.767 47.1591 145.381 47.1591C146.244 47.1591 146.922 47.3485 147.415 47.7273C147.911 48.1061 148.263 48.6061 148.472 49.2273Z" fill="black"/>
</g>
<defs>
<filter id="filter0_bi_3_19" x="-4" y="8" width="84" height="81" filterUnits="userSpaceOnUse" color-interpolation-filters="sRGB">
<feFlood flood-opacity="0" result="BackgroundImageFix"/>
<feGaussianBlur in="BackgroundImageFix" stdDeviation="2"/>
<feComposite in2="SourceAlpha" operator="in" result="effect1_backgroundBlur_3_19"/>
<feBlend mode="normal" in="SourceGraphic" in2="effect1_backgroundBlur_3_19" result="shape"/>
<feColorMatrix in="SourceAlpha" type="matrix" values="0 0 0 0 0 0 0 0 0 0 0 0 0 0 0 0 0 0 127 0" result="hardAlpha"/>
<feOffset dx="15" dy="9"/>
<feGaussianBlur stdDeviation="2"/>
<feComposite in2="hardAlpha" operator="arithmetic" k2="-1" k3="1"/>
<feColorMatrix type="matrix" values="0 0 0 0 0 0 0 0 0 0 0 0 0 0 0 0 0 0 0.25 0"/>
<feBlend mode="normal" in2="shape" result="effect2_innerShadow_3_19"/>
</filter>
<filter id="filter1_bd_3_19" x="43.4091" y="40" width="109.222" height="24.2045" filterUnits="userSpaceOnUse" color-interpolation-filters="sRGB">
<feFlood flood-opacity="0" result="BackgroundImageFix"/>
<feGaussianBlur in="BackgroundImageFix" stdDeviation="2"/>
<feComposite in2="SourceAlpha" operator="in" result="effect1_backgroundBlur_3_19"/>
<feColorMatrix in="SourceAlpha" type="matrix" values="0 0 0 0 0 0 0 0 0 0 0 0 0 0 0 0 0 0 127 0" result="hardAlpha"/>
<feOffset dy="4"/>
<feGaussianBlur stdDeviation="2"/>
<feComposite in2="hardAlpha" operator="out"/>
<feColorMatrix type="matrix" values="0 0 0 0 0 0 0 0 0 0 0 0 0 0 0 0 0 0 0.25 0"/>
<feBlend mode="normal" in2="effect1_backgroundBlur_3_19" result="effect2_dropShadow_3_19"/>
<feBlend mode="normal" in="SourceGraphic" in2="effect2_dropShadow_3_19" result="shape"/>
</filter>
</defs>
</svg>
